<svg width="489" height="188" viewBox="0 0 489 188" fill="none" xmlns="http://www.w3.org/2000/svg">
<path d="M488.572 187.027L0.338867 187.026V117.788H21.3145V165.723H467.663V117.394H488.572V187.027ZM206.345 24.3076C211.351 24.3076 216.012 25.1146 220.326 26.7285C224.674 28.3094 228.462 30.6968 231.689 33.8916C234.95 37.0864 237.486 41.1047 239.298 45.9463C241.109 50.7549 242.015 56.3873 242.015 62.8428V68.623H190.338V68.6719C190.338 72.4266 191.03 75.6716 192.413 78.4053C193.829 81.1387 195.822 83.2465 198.391 84.7285C200.96 86.2106 204.006 86.9521 207.53 86.9521C209.869 86.9521 212.01 86.6226 213.953 85.9639C215.896 85.3051 217.56 84.3165 218.943 82.999C220.326 81.6818 221.38 80.0681 222.104 78.1582L241.57 79.4424C240.582 84.1193 238.556 88.2031 235.493 91.6943C232.463 95.1526 228.544 97.8536 223.735 99.7969C218.96 101.707 213.442 102.662 207.185 102.662C199.379 102.662 192.66 101.082 187.028 97.9199C181.429 94.7251 177.114 90.2125 174.084 84.3828C171.054 78.5203 169.539 71.5873 169.539 63.584C169.539 55.7781 171.054 48.9268 174.084 43.0312C177.114 37.1358 181.38 32.5416 186.88 29.248C192.413 25.9545 198.901 24.3076 206.345 24.3076ZM420.829 24.3076C425.045 24.3076 429.079 24.8011 432.933 25.7891C436.819 26.7771 440.262 28.3088 443.259 30.3838C446.289 32.4588 448.676 35.127 450.422 38.3877C452.167 41.6153 453.041 45.485 453.041 49.9971V101.181H433.081V90.6572H432.488C431.27 93.0285 429.64 95.1202 427.598 96.9316C425.556 98.7102 423.102 100.11 420.236 101.131C417.371 102.119 414.06 102.613 410.306 102.613C405.464 102.613 401.15 101.773 397.362 100.094C393.575 98.3811 390.577 95.8607 388.37 92.5342C386.196 89.1748 385.109 84.9915 385.109 79.9854C385.109 75.7699 385.884 72.2295 387.432 69.3643C388.98 66.4988 391.088 64.1929 393.756 62.4473C396.424 60.7018 399.453 59.3844 402.846 58.4951C406.271 57.6058 409.861 56.9795 413.616 56.6172C418.029 56.1561 421.586 55.7282 424.287 55.333C426.988 54.9049 428.947 54.2793 430.166 53.4561C431.385 52.6327 431.994 51.4137 431.994 49.7998V49.5029C431.994 46.3743 431.006 43.9538 429.03 42.2412C427.087 40.5286 424.32 39.6719 420.73 39.6719C416.943 39.6719 413.929 40.5118 411.689 42.1914C409.45 43.8381 407.968 45.9131 407.243 48.416L387.777 46.8359C388.765 42.2249 390.709 38.2394 393.607 34.8799C396.506 31.4875 400.244 28.8857 404.822 27.0742C409.433 25.2298 414.769 24.3076 420.829 24.3076ZM147.361 25.2949H161.64V41.1045H147.361V77.8613C147.361 79.8044 147.658 81.3194 148.251 82.4062C148.844 83.4602 149.668 84.2017 150.722 84.6299C151.808 85.0579 153.06 85.2724 154.476 85.2725C155.464 85.2725 156.452 85.1901 157.44 85.0254C158.428 84.8278 159.186 84.6789 159.713 84.5801L163.022 100.241C161.969 100.571 160.486 100.95 158.576 101.378C156.666 101.839 154.344 102.119 151.61 102.218C146.538 102.415 142.092 101.74 138.271 100.192C134.484 98.6444 131.536 96.2401 129.428 92.9795C127.32 89.7188 126.282 85.6013 126.315 80.6279V41.1045H115.94V25.2949H126.315V7.11426H147.361V25.2949ZM21.3916 101.181H0V0H21.3916V101.181ZM80.4365 24.3076C85.7063 24.3076 90.3013 25.4601 94.2207 27.7656C98.1401 30.0712 101.187 33.3648 103.36 37.6465C105.534 41.8952 106.621 46.9677 106.621 52.8633V101.181H85.5752V56.6172C85.6081 51.9734 84.4218 48.3509 82.0176 45.749C79.6133 43.1142 76.3036 41.796 72.0879 41.7959C69.2554 41.7959 66.7519 42.4054 64.5781 43.624C62.4373 44.8427 60.7577 46.6215 59.5391 48.96C58.3534 51.2655 57.7439 54.0489 57.7109 57.3096V101.181H36.665V25.2949H56.7227V38.6836H57.6123C59.2921 34.2703 62.1083 30.7789 66.0605 28.21C70.0127 25.6082 74.8047 24.3077 80.4365 24.3076ZM293.241 24.208C294.295 24.208 295.432 24.2745 296.65 24.4062C297.869 24.538 298.939 24.7187 299.861 24.9492V43.624C298.873 43.3276 297.506 43.0645 295.761 42.834C294.015 42.6035 292.418 42.4883 290.969 42.4883C287.873 42.4883 285.106 43.1633 282.669 44.5137C280.265 45.8311 278.354 47.6755 276.938 50.0469C275.554 52.4182 274.863 55.1522 274.863 58.248V101.181H253.816V25.2949H274.221V38.5361H275.011C276.394 33.8263 278.717 30.2686 281.978 27.8643C285.238 25.4271 288.993 24.208 293.241 24.208ZM343.085 79.5908H343.875L359.586 25.2949H381.867L355.337 101.181H331.623L305.093 25.2949H327.325L343.085 79.5908ZM488.482 101.181H467.437V0H488.482V101.181ZM432.143 66.0039C431.484 66.432 430.578 66.8282 429.426 67.1904C428.306 67.5198 427.037 67.8325 425.621 68.1289C424.205 68.3924 422.788 68.6396 421.372 68.8701C419.956 69.0677 418.671 69.2484 417.519 69.4131C415.049 69.7754 412.891 70.3522 411.047 71.1426C409.203 71.933 407.77 73.0033 406.749 74.3535C405.728 75.6709 405.218 77.3179 405.218 79.2939C405.218 82.1594 406.255 84.3502 408.33 85.8652C410.438 87.3472 413.106 88.0878 416.333 88.0879C419.429 88.0879 422.163 87.4784 424.534 86.2598C426.906 85.0082 428.767 83.3286 430.117 81.2207C431.467 79.1129 432.143 76.7252 432.143 74.0576V66.0039ZM206.69 40.0176C203.496 40.0176 200.663 40.7591 198.193 42.2412C195.756 43.6904 193.845 45.6499 192.462 48.1201C191.186 50.3685 190.485 52.8552 190.358 55.5801H222.204C222.204 52.55 221.545 49.8658 220.228 47.5273C218.91 45.1889 217.082 43.3604 214.743 42.043C212.438 40.6928 209.753 40.0176 206.69 40.0176Z" fill="black"/>
</svg>
