<svg width="489" height="188" viewBox="0 0 489 188" fill="none" xmlns="http://www.w3.org/2000/svg">
<path d="M488.572 187.027H0.338867V117.788H21.3145V165.723H467.663V117.395H488.572V187.027ZM206.345 24.3076C211.351 24.3076 216.012 25.1147 220.326 26.7285C224.674 28.3094 228.462 30.6969 231.689 33.8916C234.95 37.0863 237.485 41.1048 239.297 45.9463C241.108 50.755 242.015 56.3873 242.015 62.8428V68.623H190.338V68.6719C190.338 72.4266 191.03 75.6716 192.413 78.4053C193.829 81.1387 195.822 83.2465 198.391 84.7285C200.96 86.2106 204.006 86.9521 207.53 86.9521C209.869 86.9521 212.01 86.6226 213.953 85.9639C215.896 85.3051 217.559 84.3164 218.942 82.999C220.326 81.6817 221.38 80.0683 222.104 78.1582L241.57 79.4424C240.582 84.1192 238.556 88.2031 235.493 91.6943C232.463 95.1525 228.544 97.8537 223.735 99.7969C218.96 101.707 213.442 102.662 207.185 102.662C199.379 102.662 192.659 101.082 187.027 97.9199C181.428 94.7251 177.114 90.2124 174.084 84.3828C171.054 78.5203 169.538 71.5873 169.538 63.584C169.538 55.7781 171.054 48.9268 174.084 43.0312C177.114 37.136 181.379 32.5416 186.879 29.248C192.412 25.9544 198.901 24.3076 206.345 24.3076ZM420.829 24.3076C425.045 24.3076 429.079 24.8011 432.933 25.7891C436.819 26.7771 440.262 28.3088 443.259 30.3838C446.289 32.4587 448.676 35.1271 450.422 38.3877C452.167 41.6153 453.04 45.4851 453.04 49.9971V101.181H433.081V90.6572H432.488C431.27 93.0285 429.64 95.1202 427.598 96.9316C425.556 98.7101 423.102 100.11 420.236 101.131C417.371 102.119 414.06 102.613 410.306 102.613C405.464 102.613 401.15 101.773 397.362 100.094C393.575 98.3811 390.577 95.8607 388.37 92.5342C386.196 89.1747 385.109 84.9915 385.109 79.9854C385.109 75.7698 385.884 72.2296 387.432 69.3643C388.98 66.4989 391.087 64.1929 393.755 62.4473C396.423 60.7017 399.453 59.3844 402.846 58.4951C406.271 57.6058 409.861 56.9795 413.616 56.6172C418.029 56.1561 421.586 55.7282 424.287 55.333C426.988 54.9049 428.947 54.2794 430.166 53.4561C431.385 52.6327 431.994 51.4137 431.994 49.7998V49.5039C431.994 46.3751 431.006 43.9539 429.03 42.2412C427.087 40.5286 424.32 39.6719 420.73 39.6719C416.943 39.6719 413.929 40.5118 411.689 42.1914C409.45 43.8382 407.967 45.9138 407.242 48.417L387.777 46.8359C388.765 42.2249 390.709 38.2394 393.607 34.8799C396.506 31.4875 400.244 28.8857 404.822 27.0742C409.433 25.2299 414.769 24.3076 420.829 24.3076ZM147.361 25.2949H161.64V41.1045H147.361V77.8613C147.361 79.8044 147.658 81.3194 148.251 82.4062C148.844 83.4601 149.667 84.2017 150.721 84.6299C151.808 85.058 153.059 85.2724 154.476 85.2725C155.464 85.2725 156.452 85.1901 157.44 85.0254C158.428 84.8278 159.186 84.6789 159.713 84.5801L163.022 100.241C161.969 100.571 160.486 100.95 158.576 101.378C156.666 101.839 154.344 102.119 151.61 102.218C146.538 102.415 142.092 101.74 138.271 100.192C134.484 98.6444 131.536 96.24 129.428 92.9795C127.32 89.7188 126.282 85.6013 126.315 80.6279V41.1045H115.94V25.2949H126.315V7.11426H147.361V25.2949ZM21.3916 101.181H0V0H21.3916V101.181ZM80.4365 24.3076C85.7063 24.3076 90.3013 25.4601 94.2207 27.7656C98.14 30.0711 101.187 33.3649 103.36 37.6465C105.534 41.8952 106.621 46.9678 106.621 52.8633V101.181H85.5742V56.6172C85.6071 51.9735 84.4217 48.3509 82.0176 45.749C79.6132 43.1141 76.3027 41.7959 72.0869 41.7959C69.2547 41.796 66.7517 42.4056 64.5781 43.624C62.4373 44.8426 60.7577 46.6216 59.5391 48.96C58.3534 51.2655 57.7439 54.0489 57.7109 57.3096V101.181H36.6641V25.2949H56.7227V38.6836H57.6123C59.292 34.2704 62.1075 30.7789 66.0596 28.21C70.0119 25.608 74.8045 24.3076 80.4365 24.3076ZM293.241 24.208C294.295 24.208 295.432 24.2745 296.65 24.4062C297.869 24.538 298.939 24.7187 299.861 24.9492V43.624C298.873 43.3276 297.506 43.0645 295.761 42.834C294.015 42.6034 292.418 42.4883 290.969 42.4883C287.873 42.4883 285.106 43.1634 282.669 44.5137C280.265 45.8311 278.354 47.6755 276.938 50.0469C275.554 52.4183 274.862 55.1521 274.862 58.248V101.181H253.816V25.2949H274.221V38.5361H275.011C276.394 33.8264 278.716 30.2686 281.977 27.8643C285.237 25.427 288.992 24.208 293.241 24.208ZM343.085 79.5908H343.875L359.586 25.2949H381.867L355.337 101.181H331.623L305.093 25.2949H327.324L343.085 79.5908ZM488.482 101.181H467.437V0H488.482V101.181ZM432.143 66.0049C431.484 66.433 430.578 66.8281 429.425 67.1904C428.305 67.5197 427.037 67.8325 425.621 68.1289C424.205 68.3924 422.788 68.6396 421.372 68.8701C419.956 69.0677 418.671 69.2484 417.519 69.4131C415.048 69.7754 412.891 70.3521 411.047 71.1426C409.203 71.933 407.77 73.0033 406.749 74.3535C405.728 75.6709 405.217 77.3179 405.217 79.2939C405.217 82.1593 406.254 84.3502 408.329 85.8652C410.437 87.3474 413.105 88.0879 416.333 88.0879C419.429 88.0879 422.163 87.4784 424.534 86.2598C426.905 85.0082 428.767 83.3286 430.117 81.2207C431.467 79.113 432.143 76.7252 432.143 74.0576V66.0049ZM206.69 40.0176C203.496 40.0176 200.664 40.7592 198.193 42.2412C195.756 43.6904 193.845 45.6499 192.462 48.1201C191.186 50.3685 190.485 52.8552 190.358 55.5801H222.203C222.203 52.5501 221.545 49.8657 220.228 47.5273C218.91 45.1889 217.082 43.3604 214.743 42.043C212.438 40.6927 209.753 40.0176 206.69 40.0176Z" fill="#F9F9F3"/>
</svg>
